<mxfile host="65bd71144e">
    <diagram id="m5wGgOUBhGmrIuKZJx07" name="Page-1">
        <mxGraphModel dx="571" dy="654" grid="0" gridSize="10" guides="1" tooltips="1" connect="1" arrows="1" fold="1" page="1" pageScale="1" pageWidth="1100" pageHeight="1700" math="0" shadow="0">
            <root>
                <mxCell id="0"/>
                <mxCell id="1" parent="0"/>
                <mxCell id="46" style="edgeStyle=none;html=1;exitX=0.5;exitY=1;exitDx=0;exitDy=0;entryX=0;entryY=0;entryDx=0;entryDy=0;" parent="1" source="2" target="45" edge="1">
                    <mxGeometry relative="1" as="geometry"/>
                </mxCell>
                <mxCell id="2" value="Menu" style="rounded=1;whiteSpace=wrap;html=1;" parent="1" vertex="1">
                    <mxGeometry y="448" width="120" height="60" as="geometry"/>
                </mxCell>
                <mxCell id="11" value="&lt;span style=&quot;font-family: Consolas, &amp;quot;Courier New&amp;quot;, monospace; font-size: 14px; font-weight: 400; color: rgb(86, 156, 214);&quot;&gt;class&lt;/span&gt;&lt;span style=&quot;color: rgb(204, 204, 204); font-family: Consolas, &amp;quot;Courier New&amp;quot;, monospace; font-size: 14px; font-weight: 400; background-color: rgb(31, 31, 31);&quot;&gt;&amp;nbsp;&lt;/span&gt;&lt;span style=&quot;font-family: Consolas, &amp;quot;Courier New&amp;quot;, monospace; font-size: 14px; font-weight: 400; color: rgb(78, 201, 176);&quot;&gt;QuanLyHocVien&lt;/span&gt;&lt;span style=&quot;color: rgb(204, 204, 204); font-family: Consolas, &amp;quot;Courier New&amp;quot;, monospace; font-size: 14px; font-weight: 400; background-color: rgb(31, 31, 31);&quot;&gt;()&lt;/span&gt;" style="swimlane;whiteSpace=wrap;html=1;" parent="1" vertex="1">
                    <mxGeometry x="165" y="158" width="200" height="233.99516802106587" as="geometry"/>
                </mxCell>
                <mxCell id="38" value="&lt;div style=&quot;color: rgb(204, 204, 204); background-color: rgb(31, 31, 31); font-family: Consolas, &amp;quot;Courier New&amp;quot;, monospace; font-weight: normal; font-size: 14px; line-height: 19px;&quot;&gt;&lt;div&gt;&lt;span style=&quot;color: #dcdcaa;&quot;&gt;them&lt;/span&gt;&lt;/div&gt;&lt;/div&gt;" style="text;whiteSpace=wrap;html=1;" parent="11" vertex="1">
                    <mxGeometry x="40" y="24" width="60" height="40" as="geometry"/>
                </mxCell>
                <mxCell id="39" value="&lt;div style=&quot;color: rgb(204, 204, 204); background-color: rgb(31, 31, 31); font-family: Consolas, &amp;quot;Courier New&amp;quot;, monospace; font-weight: normal; font-size: 14px; line-height: 19px;&quot;&gt;&lt;div&gt;&lt;span style=&quot;color: #dcdcaa;&quot;&gt;sua&lt;/span&gt;&lt;/div&gt;&lt;/div&gt;" style="text;whiteSpace=wrap;html=1;" parent="11" vertex="1">
                    <mxGeometry x="40" y="49" width="60" height="40" as="geometry"/>
                </mxCell>
                <mxCell id="40" value="&lt;div style=&quot;color: rgb(204, 204, 204); background-color: rgb(31, 31, 31); font-family: Consolas, &amp;quot;Courier New&amp;quot;, monospace; font-weight: normal; font-size: 14px; line-height: 19px;&quot;&gt;&lt;div&gt;&lt;span style=&quot;color: #dcdcaa;&quot;&gt;xoa&lt;/span&gt;&lt;/div&gt;&lt;/div&gt;" style="text;whiteSpace=wrap;html=1;" parent="11" vertex="1">
                    <mxGeometry x="40" y="77" width="60" height="40" as="geometry"/>
                </mxCell>
                <mxCell id="41" value="&lt;div style=&quot;color: rgb(204, 204, 204); background-color: rgb(31, 31, 31); font-family: Consolas, &amp;quot;Courier New&amp;quot;, monospace; font-weight: normal; font-size: 14px; line-height: 19px;&quot;&gt;&lt;div&gt;&lt;span style=&quot;color: #dcdcaa;&quot;&gt;timKiem&lt;/span&gt;&lt;/div&gt;&lt;/div&gt;" style="text;whiteSpace=wrap;html=1;" parent="11" vertex="1">
                    <mxGeometry x="40" y="106" width="90" height="40" as="geometry"/>
                </mxCell>
                <mxCell id="384" value="&lt;div style=&quot;color: rgb(212, 212, 212); background-color: rgb(30, 30, 30); font-family: &amp;quot;Droid Sans Mono&amp;quot;, &amp;quot;monospace&amp;quot;, monospace; font-weight: normal; font-size: 14px; line-height: 19px;&quot;&gt;&lt;div&gt;&lt;span style=&quot;color: #d4d4d4;&quot;&gt;check_id&lt;/span&gt;&lt;/div&gt;&lt;/div&gt;" style="text;whiteSpace=wrap;html=1;" vertex="1" parent="11">
                    <mxGeometry x="41.504242117745605" y="159.99659659249443" width="95" height="41" as="geometry"/>
                </mxCell>
                <mxCell id="385" value="&lt;div style=&quot;color: rgb(212, 212, 212); background-color: rgb(30, 30, 30); font-family: &amp;quot;Droid Sans Mono&amp;quot;, &amp;quot;monospace&amp;quot;, monospace; font-weight: normal; font-size: 14px; line-height: 19px;&quot;&gt;&lt;div&gt;&lt;span style=&quot;color: #d4d4d4;&quot;&gt;hienThi&lt;/span&gt;&lt;/div&gt;&lt;/div&gt;" style="text;whiteSpace=wrap;html=1;" vertex="1" parent="11">
                    <mxGeometry x="41.49995640345992" y="134.00088230678023" width="87" height="41" as="geometry"/>
                </mxCell>
                <mxCell id="386" value="&lt;div style=&quot;color: rgb(212, 212, 212); background-color: rgb(30, 30, 30); font-family: &amp;quot;Droid Sans Mono&amp;quot;, &amp;quot;monospace&amp;quot;, monospace; font-weight: normal; font-size: 14px; line-height: 19px;&quot;&gt;&lt;div&gt;&lt;span style=&quot;color: #d4d4d4;&quot;&gt;tabulate_print&lt;/span&gt;&lt;/div&gt;&lt;/div&gt;" style="text;whiteSpace=wrap;html=1;" vertex="1" parent="11">
                    <mxGeometry x="41.49995640345992" y="192.99516802106587" width="146" height="41" as="geometry"/>
                </mxCell>
                <mxCell id="12" value="&lt;span style=&quot;font-family: Consolas, &amp;quot;Courier New&amp;quot;, monospace; font-size: 14px; font-weight: 400; background-color: rgb(31, 31, 31); color: rgb(86, 156, 214);&quot;&gt;class&lt;/span&gt;&lt;span style=&quot;color: rgb(204, 204, 204); font-family: Consolas, &amp;quot;Courier New&amp;quot;, monospace; font-size: 14px; font-weight: 400; background-color: rgb(31, 31, 31);&quot;&gt;&amp;nbsp;&lt;/span&gt;&lt;span style=&quot;font-family: Consolas, &amp;quot;Courier New&amp;quot;, monospace; font-size: 14px; font-weight: 400; background-color: rgb(31, 31, 31); color: rgb(78, 201, 176);&quot;&gt;QuanLyMonHoc&lt;/span&gt;&lt;span style=&quot;color: rgb(204, 204, 204); font-family: Consolas, &amp;quot;Courier New&amp;quot;, monospace; font-size: 14px; font-weight: 400; background-color: rgb(31, 31, 31);&quot;&gt;()&lt;/span&gt;" style="swimlane;whiteSpace=wrap;html=1;" parent="1" vertex="1">
                    <mxGeometry x="410" y="158" width="200" height="230" as="geometry"/>
                </mxCell>
                <mxCell id="13" value="&lt;span style=&quot;font-family: Consolas, &amp;quot;Courier New&amp;quot;, monospace; font-size: 14px; font-weight: 400; background-color: rgb(31, 31, 31); color: rgb(86, 156, 214);&quot;&gt;class&lt;/span&gt;&lt;span style=&quot;color: rgb(204, 204, 204); font-family: Consolas, &amp;quot;Courier New&amp;quot;, monospace; font-size: 14px; font-weight: 400; background-color: rgb(31, 31, 31);&quot;&gt;&amp;nbsp;&lt;/span&gt;&lt;span style=&quot;font-family: Consolas, &amp;quot;Courier New&amp;quot;, monospace; font-size: 14px; font-weight: 400; background-color: rgb(31, 31, 31); color: rgb(78, 201, 176);&quot;&gt;QuanLyDiemThi&lt;/span&gt;&lt;span style=&quot;color: rgb(204, 204, 204); font-family: Consolas, &amp;quot;Courier New&amp;quot;, monospace; font-size: 14px; font-weight: 400; background-color: rgb(31, 31, 31);&quot;&gt;()&lt;/span&gt;" style="swimlane;whiteSpace=wrap;html=1;" parent="1" vertex="1">
                    <mxGeometry x="650" y="158" width="200" height="260" as="geometry"/>
                </mxCell>
                <mxCell id="47" style="edgeStyle=none;html=1;exitX=0.5;exitY=1;exitDx=0;exitDy=0;entryX=0.25;entryY=0;entryDx=0;entryDy=0;" parent="1" source="42" target="45" edge="1">
                    <mxGeometry relative="1" as="geometry"/>
                </mxCell>
                <mxCell id="42" value="&lt;div style=&quot;color: rgb(204, 204, 204); background-color: rgb(31, 31, 31); font-family: Consolas, &amp;quot;Courier New&amp;quot;, monospace; font-size: 14px; line-height: 19px;&quot;&gt;&lt;span style=&quot;color: #569cd6;&quot;&gt;def&lt;/span&gt; &lt;span style=&quot;color: #dcdcaa;&quot;&gt;xuly_1&lt;/span&gt;(&lt;span style=&quot;color: #9cdcfe;&quot;&gt;qlhv&lt;/span&gt;)&lt;/div&gt;" style="shape=parallelogram;perimeter=parallelogramPerimeter;whiteSpace=wrap;html=1;fixedSize=1;" parent="1" vertex="1">
                    <mxGeometry x="165" y="448" width="200" height="60" as="geometry"/>
                </mxCell>
                <mxCell id="48" style="edgeStyle=none;html=1;exitX=0.5;exitY=1;exitDx=0;exitDy=0;entryX=0.5;entryY=0;entryDx=0;entryDy=0;" parent="1" source="43" target="45" edge="1">
                    <mxGeometry relative="1" as="geometry"/>
                </mxCell>
                <mxCell id="43" value="&lt;div style=&quot;color: rgb(204, 204, 204); background-color: rgb(31, 31, 31); font-family: Consolas, &amp;quot;Courier New&amp;quot;, monospace; font-size: 14px; line-height: 19px;&quot;&gt;&lt;div style=&quot;line-height: 19px;&quot;&gt;&lt;span style=&quot;color: #569cd6;&quot;&gt;def&lt;/span&gt; &lt;span style=&quot;color: #dcdcaa;&quot;&gt;xuly_2&lt;/span&gt;(&lt;span style=&quot;color: #9cdcfe;&quot;&gt;qlmh&lt;/span&gt;)&lt;/div&gt;&lt;/div&gt;" style="shape=parallelogram;perimeter=parallelogramPerimeter;whiteSpace=wrap;html=1;fixedSize=1;" parent="1" vertex="1">
                    <mxGeometry x="405" y="448" width="200" height="60" as="geometry"/>
                </mxCell>
                <mxCell id="49" style="edgeStyle=none;html=1;exitX=0.5;exitY=1;exitDx=0;exitDy=0;entryX=0.75;entryY=0;entryDx=0;entryDy=0;" parent="1" source="44" target="45" edge="1">
                    <mxGeometry relative="1" as="geometry"/>
                </mxCell>
                <mxCell id="44" value="&lt;div style=&quot;color: rgb(204, 204, 204); background-color: rgb(31, 31, 31); font-family: Consolas, &amp;quot;Courier New&amp;quot;, monospace; font-size: 14px; line-height: 19px;&quot;&gt;&lt;div style=&quot;line-height: 19px;&quot;&gt;&lt;span style=&quot;color: #569cd6;&quot;&gt;def&lt;/span&gt; &lt;span style=&quot;color: #dcdcaa;&quot;&gt;xuly_3&lt;/span&gt;(&lt;span style=&quot;color: #9cdcfe;&quot;&gt;qldt&lt;/span&gt;)&lt;/div&gt;&lt;/div&gt;" style="shape=parallelogram;perimeter=parallelogramPerimeter;whiteSpace=wrap;html=1;fixedSize=1;" parent="1" vertex="1">
                    <mxGeometry x="656" y="448" width="200" height="60" as="geometry"/>
                </mxCell>
                <mxCell id="45" value="&#10;&lt;div style=&quot;color: rgb(204, 204, 204); background-color: rgb(31, 31, 31); font-family: Consolas, &amp;quot;Courier New&amp;quot;, monospace; font-weight: normal; font-size: 14px; line-height: 19px;&quot;&gt;&lt;div&gt;&lt;span style=&quot;color: #c586c0;&quot;&gt;if&lt;/span&gt;&lt;span style=&quot;color: #cccccc;&quot;&gt; &lt;/span&gt;&lt;span style=&quot;color: #9cdcfe;&quot;&gt;__name__&lt;/span&gt;&lt;span style=&quot;color: #cccccc;&quot;&gt; &lt;/span&gt;&lt;span style=&quot;color: #d4d4d4;&quot;&gt;==&lt;/span&gt;&lt;span style=&quot;color: #cccccc;&quot;&gt; &lt;/span&gt;&lt;span style=&quot;color: #ce9178;&quot;&gt;&quot;__main__&quot;&lt;/span&gt;&lt;/div&gt;&lt;/div&gt;&#10;&#10;" style="shape=process;whiteSpace=wrap;html=1;backgroundOutline=1;" parent="1" vertex="1">
                    <mxGeometry x="360" y="618" width="240" height="140" as="geometry"/>
                </mxCell>
                <mxCell id="50" style="edgeStyle=none;html=1;exitX=0.5;exitY=1;exitDx=0;exitDy=0;entryX=0.5;entryY=0;entryDx=0;entryDy=0;" parent="1" source="11" target="42" edge="1">
                    <mxGeometry relative="1" as="geometry"/>
                </mxCell>
                <mxCell id="51" style="edgeStyle=none;html=1;exitX=0.75;exitY=1;exitDx=0;exitDy=0;entryX=0.5;entryY=0;entryDx=0;entryDy=0;" parent="1" target="43" edge="1">
                    <mxGeometry relative="1" as="geometry">
                        <mxPoint x="507.5" y="388" as="sourcePoint"/>
                    </mxGeometry>
                </mxCell>
                <mxCell id="52" style="edgeStyle=none;html=1;exitX=0.75;exitY=1;exitDx=0;exitDy=0;entryX=0.5;entryY=0;entryDx=0;entryDy=0;" parent="1" target="44" edge="1">
                    <mxGeometry relative="1" as="geometry">
                        <mxPoint x="757.5" y="418" as="sourcePoint"/>
                    </mxGeometry>
                </mxCell>
                <mxCell id="322" style="edgeStyle=none;html=1;exitX=0.5;exitY=1;exitDx=0;exitDy=0;" parent="1" source="313" target="321" edge="1">
                    <mxGeometry relative="1" as="geometry"/>
                </mxCell>
                <mxCell id="313" value="&lt;span style=&quot;font-family: Consolas, &amp;quot;Courier New&amp;quot;, monospace; font-size: 14px; font-weight: 400; background-color: rgb(31, 31, 31); color: rgb(86, 156, 214);&quot;&gt;class&lt;/span&gt;&lt;span style=&quot;color: rgb(204, 204, 204); font-family: Consolas, &amp;quot;Courier New&amp;quot;, monospace; font-size: 14px; font-weight: 400; background-color: rgb(31, 31, 31);&quot;&gt;&amp;nbsp;&lt;/span&gt;&lt;span style=&quot;font-family: Consolas, &amp;quot;Courier New&amp;quot;, monospace; font-size: 14px; font-weight: 400; background-color: rgb(31, 31, 31); color: rgb(78, 201, 176);&quot;&gt;QuanLyDB&lt;/span&gt;&lt;span style=&quot;color: rgb(204, 204, 204); font-family: Consolas, &amp;quot;Courier New&amp;quot;, monospace; font-size: 14px; font-weight: 400; background-color: rgb(31, 31, 31);&quot;&gt;()&lt;/span&gt;" style="swimlane;whiteSpace=wrap;html=1;" parent="1" vertex="1">
                    <mxGeometry x="895" y="158" width="200" height="260" as="geometry"/>
                </mxCell>
                <mxCell id="314" value="&lt;div style=&quot;color: rgb(204, 204, 204); background-color: rgb(31, 31, 31); font-family: Consolas, &amp;quot;Courier New&amp;quot;, monospace; font-size: 14px; line-height: 19px;&quot;&gt;&lt;div style=&quot;color: rgb(212, 212, 212); background-color: rgb(30, 30, 30); font-family: &amp;quot;Droid Sans Mono&amp;quot;, &amp;quot;monospace&amp;quot;, monospace; line-height: 19px;&quot;&gt;check_database_exists&lt;/div&gt;&lt;/div&gt;" style="text;html=1;align=center;verticalAlign=middle;resizable=0;points=[];autosize=1;strokeColor=none;fillColor=none;" parent="313" vertex="1">
                    <mxGeometry x="5" y="34" width="195" height="31" as="geometry"/>
                </mxCell>
                <mxCell id="315" value="&lt;div style=&quot;color: rgb(204, 204, 204); background-color: rgb(31, 31, 31); font-family: Consolas, &amp;quot;Courier New&amp;quot;, monospace; font-weight: normal; font-size: 14px; line-height: 19px;&quot;&gt;&lt;div style=&quot;color: rgb(212, 212, 212); background-color: rgb(30, 30, 30); font-family: &amp;quot;Droid Sans Mono&amp;quot;, &amp;quot;monospace&amp;quot;, monospace; line-height: 19px;&quot;&gt;create_DB&lt;/div&gt;&lt;/div&gt;" style="text;whiteSpace=wrap;html=1;" parent="313" vertex="1">
                    <mxGeometry x="13" y="65" width="100" height="40" as="geometry"/>
                </mxCell>
                <mxCell id="316" value="&lt;div style=&quot;color: rgb(204, 204, 204); background-color: rgb(31, 31, 31); font-family: Consolas, &amp;quot;Courier New&amp;quot;, monospace; font-weight: normal; font-size: 14px; line-height: 19px;&quot;&gt;&lt;div style=&quot;color: rgb(212, 212, 212); background-color: rgb(30, 30, 30); font-family: &amp;quot;Droid Sans Mono&amp;quot;, &amp;quot;monospace&amp;quot;, monospace; line-height: 19px;&quot;&gt;delete_DB&lt;/div&gt;&lt;/div&gt;" style="text;whiteSpace=wrap;html=1;" parent="313" vertex="1">
                    <mxGeometry x="13" y="101" width="60" height="40" as="geometry"/>
                </mxCell>
                <mxCell id="317" value="&lt;div style=&quot;background-color: rgb(31, 31, 31); font-family: Consolas, &amp;quot;Courier New&amp;quot;, monospace; font-weight: normal; font-size: 14px; line-height: 19px;&quot;&gt;&lt;div style=&quot;color: rgb(212, 212, 212); background-color: rgb(30, 30, 30); font-family: &amp;quot;Droid Sans Mono&amp;quot;, &amp;quot;monospace&amp;quot;, monospace; line-height: 19px;&quot;&gt;connect_DB&lt;/div&gt;&lt;/div&gt;" style="text;whiteSpace=wrap;html=1;" parent="313" vertex="1">
                    <mxGeometry x="13" y="133" width="60" height="40" as="geometry"/>
                </mxCell>
                <mxCell id="318" value="&lt;div style=&quot;color: rgb(204, 204, 204); background-color: rgb(31, 31, 31); font-family: Consolas, &amp;quot;Courier New&amp;quot;, monospace; font-weight: normal; font-size: 14px; line-height: 19px;&quot;&gt;&lt;div style=&quot;color: rgb(212, 212, 212); background-color: rgb(30, 30, 30); font-family: &amp;quot;Droid Sans Mono&amp;quot;, &amp;quot;monospace&amp;quot;, monospace; line-height: 19px;&quot;&gt;ceate_table&lt;/div&gt;&lt;/div&gt;" style="text;whiteSpace=wrap;html=1;" parent="313" vertex="1">
                    <mxGeometry x="13" y="167" width="60" height="40" as="geometry"/>
                </mxCell>
                <mxCell id="369" value="&lt;div style=&quot;color: rgb(212, 212, 212); background-color: rgb(30, 30, 30); font-family: &amp;quot;Droid Sans Mono&amp;quot;, &amp;quot;monospace&amp;quot;, monospace; font-weight: normal; font-size: 14px; line-height: 19px;&quot;&gt;&lt;div&gt;&lt;span style=&quot;color: #d4d4d4;&quot;&gt;close_db&lt;/span&gt;&lt;/div&gt;&lt;/div&gt;" style="text;whiteSpace=wrap;html=1;" parent="313" vertex="1">
                    <mxGeometry x="13.004438476562541" y="199.99923522949217" width="95" height="41" as="geometry"/>
                </mxCell>
                <mxCell id="323" style="edgeStyle=none;html=1;exitX=0.5;exitY=1;exitDx=0;exitDy=0;entryX=1;entryY=0;entryDx=0;entryDy=0;" parent="1" source="321" target="45" edge="1">
                    <mxGeometry relative="1" as="geometry"/>
                </mxCell>
                <mxCell id="321" value="&lt;div style=&quot;background-color: rgb(31, 31, 31); font-family: Consolas, &amp;quot;Courier New&amp;quot;, monospace; font-size: 14px; line-height: 19px;&quot;&gt;&lt;div style=&quot;line-height: 19px;&quot;&gt;&lt;span style=&quot;color: rgb(86, 156, 214);&quot;&gt;def&lt;/span&gt;&lt;font color=&quot;#cccccc&quot;&gt;&amp;nbsp;&lt;/font&gt;&lt;font color=&quot;#dcdcaa&quot;&gt;database&lt;/font&gt;&lt;font color=&quot;#cccccc&quot;&gt;(&lt;/font&gt;&lt;font color=&quot;#cccccc&quot;&gt;)&lt;/font&gt;&lt;/div&gt;&lt;/div&gt;" style="shape=parallelogram;perimeter=parallelogramPerimeter;whiteSpace=wrap;html=1;fixedSize=1;" parent="1" vertex="1">
                    <mxGeometry x="895" y="448" width="200" height="60" as="geometry"/>
                </mxCell>
                <mxCell id="324" value="&lt;span style=&quot;font-family: Consolas, &amp;quot;Courier New&amp;quot;, monospace; font-size: 14px; font-weight: 400; color: rgb(86, 156, 214);&quot;&gt;class&lt;/span&gt;&lt;span style=&quot;color: rgb(204, 204, 204); font-family: Consolas, &amp;quot;Courier New&amp;quot;, monospace; font-size: 14px; font-weight: 400; background-color: rgb(31, 31, 31);&quot;&gt;&amp;nbsp;&lt;/span&gt;&lt;span style=&quot;font-family: Consolas, &amp;quot;Courier New&amp;quot;, monospace; font-size: 14px; font-weight: 400; color: rgb(78, 201, 176);&quot;&gt;QuanLyHocVien&lt;/span&gt;&lt;span style=&quot;color: rgb(204, 204, 204); font-family: Consolas, &amp;quot;Courier New&amp;quot;, monospace; font-size: 14px; font-weight: 400; background-color: rgb(31, 31, 31);&quot;&gt;()&lt;/span&gt;" style="swimlane;whiteSpace=wrap;html=1;" parent="1" vertex="1">
                    <mxGeometry x="1226" y="12" width="748" height="616" as="geometry"/>
                </mxCell>
                <mxCell id="339" value="them" style="label;whiteSpace=wrap;html=1;image=img/clipart/Gear_128x128.png" parent="324" vertex="1">
                    <mxGeometry x="25" y="138" width="140" height="60" as="geometry"/>
                </mxCell>
                <mxCell id="340" value="&lt;div style=&quot;color: rgb(212, 212, 212); background-color: rgb(30, 30, 30); font-family: &amp;quot;Droid Sans Mono&amp;quot;, &amp;quot;monospace&amp;quot;, monospace; font-size: 14px; line-height: 19px;&quot;&gt;input()&lt;/div&gt;" style="ellipse;shape=doubleEllipse;whiteSpace=wrap;html=1;" parent="324" vertex="1">
                    <mxGeometry x="254" y="135" width="100" height="60" as="geometry"/>
                </mxCell>
                <mxCell id="342" value="&lt;div style=&quot;color: rgb(212, 212, 212); background-color: rgb(30, 30, 30); font-family: &amp;quot;Droid Sans Mono&amp;quot;, &amp;quot;monospace&amp;quot;, monospace; font-size: 14px; line-height: 19px;&quot;&gt;&lt;div style=&quot;line-height: 19px;&quot;&gt;&lt;span style=&quot;color: #ce9178;&quot;&gt;INSERT INTO&lt;/span&gt;&lt;/div&gt;&lt;/div&gt;" style="ellipse;shape=doubleEllipse;whiteSpace=wrap;html=1;" parent="324" vertex="1">
                    <mxGeometry x="386" y="138" width="168" height="60" as="geometry"/>
                </mxCell>
                <mxCell id="343" style="edgeStyle=none;html=1;exitX=1;exitY=0.5;exitDx=0;exitDy=0;entryX=0.014;entryY=0.442;entryDx=0;entryDy=0;entryPerimeter=0;" parent="324" source="340" target="342" edge="1">
                    <mxGeometry relative="1" as="geometry">
                        <mxPoint x="381" y="165" as="targetPoint"/>
                    </mxGeometry>
                </mxCell>
                <mxCell id="347" value="sua" style="label;whiteSpace=wrap;html=1;image=img/clipart/Gear_128x128.png" parent="324" vertex="1">
                    <mxGeometry x="25" y="231" width="140" height="60" as="geometry"/>
                </mxCell>
                <mxCell id="348" value="&lt;div style=&quot;color: rgb(212, 212, 212); background-color: rgb(30, 30, 30); font-family: &amp;quot;Droid Sans Mono&amp;quot;, &amp;quot;monospace&amp;quot;, monospace; font-size: 14px; line-height: 19px;&quot;&gt;input()&lt;/div&gt;" style="ellipse;shape=doubleEllipse;whiteSpace=wrap;html=1;" parent="324" vertex="1">
                    <mxGeometry x="254" y="228" width="100" height="60" as="geometry"/>
                </mxCell>
                <mxCell id="371" style="edgeStyle=none;html=1;exitX=1;exitY=0.5;exitDx=0;exitDy=0;entryX=0;entryY=0.5;entryDx=0;entryDy=0;" edge="1" parent="324" source="349" target="370">
                    <mxGeometry relative="1" as="geometry"/>
                </mxCell>
                <mxCell id="349" value="&lt;div style=&quot;color: rgb(212, 212, 212); background-color: rgb(30, 30, 30); font-family: &amp;quot;Droid Sans Mono&amp;quot;, &amp;quot;monospace&amp;quot;, monospace; font-size: 14px; line-height: 19px;&quot;&gt;&lt;span style=&quot;color: #ce9178;&quot;&gt;SELECT * FROM&lt;/span&gt;&lt;/div&gt;" style="ellipse;shape=doubleEllipse;whiteSpace=wrap;html=1;" parent="324" vertex="1">
                    <mxGeometry x="386" y="231" width="138" height="60" as="geometry"/>
                </mxCell>
                <mxCell id="350" style="edgeStyle=none;html=1;exitX=1;exitY=0.5;exitDx=0;exitDy=0;entryX=0.014;entryY=0.442;entryDx=0;entryDy=0;entryPerimeter=0;" parent="324" source="348" target="349" edge="1">
                    <mxGeometry relative="1" as="geometry">
                        <mxPoint x="381" y="258" as="targetPoint"/>
                    </mxGeometry>
                </mxCell>
                <mxCell id="353" value="xoa" style="label;whiteSpace=wrap;html=1;image=img/clipart/Gear_128x128.png" parent="324" vertex="1">
                    <mxGeometry x="25" y="323" width="140" height="60" as="geometry"/>
                </mxCell>
                <mxCell id="378" style="edgeStyle=none;html=1;exitX=1;exitY=0.5;exitDx=0;exitDy=0;" edge="1" parent="324" source="354" target="373">
                    <mxGeometry relative="1" as="geometry"/>
                </mxCell>
                <mxCell id="354" value="&lt;div style=&quot;color: rgb(212, 212, 212); background-color: rgb(30, 30, 30); font-family: &amp;quot;Droid Sans Mono&amp;quot;, &amp;quot;monospace&amp;quot;, monospace; font-size: 14px; line-height: 19px;&quot;&gt;input()&lt;/div&gt;" style="ellipse;shape=doubleEllipse;whiteSpace=wrap;html=1;" parent="324" vertex="1">
                    <mxGeometry x="254" y="320" width="100" height="60" as="geometry"/>
                </mxCell>
                <mxCell id="359" value="timKiem" style="label;whiteSpace=wrap;html=1;image=img/clipart/Gear_128x128.png" parent="324" vertex="1">
                    <mxGeometry x="25" y="414" width="140" height="60" as="geometry"/>
                </mxCell>
                <mxCell id="379" style="edgeStyle=none;html=1;exitX=1;exitY=0.5;exitDx=0;exitDy=0;" edge="1" parent="324" source="360" target="376">
                    <mxGeometry relative="1" as="geometry"/>
                </mxCell>
                <mxCell id="360" value="&lt;div style=&quot;color: rgb(212, 212, 212); background-color: rgb(30, 30, 30); font-family: &amp;quot;Droid Sans Mono&amp;quot;, &amp;quot;monospace&amp;quot;, monospace; font-size: 14px; line-height: 19px;&quot;&gt;input()&lt;/div&gt;" style="ellipse;shape=doubleEllipse;whiteSpace=wrap;html=1;" parent="324" vertex="1">
                    <mxGeometry x="254" y="411" width="100" height="60" as="geometry"/>
                </mxCell>
                <mxCell id="363" value="hienThi" style="label;whiteSpace=wrap;html=1;image=img/clipart/Gear_128x128.png" parent="324" vertex="1">
                    <mxGeometry x="25" y="503" width="140" height="60" as="geometry"/>
                </mxCell>
                <mxCell id="381" style="edgeStyle=none;html=1;exitX=1;exitY=0.5;exitDx=0;exitDy=0;" edge="1" parent="324" source="364" target="380">
                    <mxGeometry relative="1" as="geometry"/>
                </mxCell>
                <mxCell id="364" value="&lt;div style=&quot;color: rgb(212, 212, 212); background-color: rgb(30, 30, 30); font-family: &amp;quot;Droid Sans Mono&amp;quot;, &amp;quot;monospace&amp;quot;, monospace; font-size: 14px; line-height: 19px;&quot;&gt;print()&lt;/div&gt;" style="ellipse;shape=doubleEllipse;whiteSpace=wrap;html=1;" parent="324" vertex="1">
                    <mxGeometry x="254" y="500" width="100" height="60" as="geometry"/>
                </mxCell>
                <mxCell id="365" value="__init__" style="label;whiteSpace=wrap;html=1;image=img/clipart/Gear_128x128.png" parent="324" vertex="1">
                    <mxGeometry x="25" y="41" width="140" height="60" as="geometry"/>
                </mxCell>
                <mxCell id="366" value="&lt;div style=&quot;color: rgb(212, 212, 212); background-color: rgb(30, 30, 30); font-family: &amp;quot;Droid Sans Mono&amp;quot;, &amp;quot;monospace&amp;quot;, monospace; font-weight: normal; font-size: 14px; line-height: 19px;&quot;&gt;&lt;div style=&quot;line-height: 19px;&quot;&gt;&lt;div&gt;&lt;span style=&quot;color: #569cd6;&quot;&gt;self&lt;/span&gt;.cur = db.cur&lt;/div&gt;&lt;div&gt;        &lt;span style=&quot;color: #569cd6;&quot;&gt;self&lt;/span&gt;.conn = db.conn&lt;/div&gt;&lt;/div&gt;&lt;/div&gt;" style="text;whiteSpace=wrap;html=1;" parent="324" vertex="1">
                    <mxGeometry x="265" y="41" width="177" height="42.75" as="geometry"/>
                </mxCell>
                <mxCell id="370" value="&lt;div style=&quot;color: rgb(212, 212, 212); background-color: rgb(30, 30, 30); font-family: &amp;quot;Droid Sans Mono&amp;quot;, &amp;quot;monospace&amp;quot;, monospace; font-size: 14px; line-height: 19px;&quot;&gt;&lt;div style=&quot;line-height: 19px;&quot;&gt;&lt;span style=&quot;color: #ce9178;&quot;&gt;UPDATE ... SET&lt;/span&gt;&lt;/div&gt;&lt;/div&gt;" style="ellipse;shape=doubleEllipse;whiteSpace=wrap;html=1;" vertex="1" parent="324">
                    <mxGeometry x="570" y="231" width="156" height="60" as="geometry"/>
                </mxCell>
                <mxCell id="373" value="&lt;div style=&quot;color: rgb(212, 212, 212); background-color: rgb(30, 30, 30); font-family: &amp;quot;Droid Sans Mono&amp;quot;, &amp;quot;monospace&amp;quot;, monospace; font-size: 14px; line-height: 19px;&quot;&gt;&lt;span style=&quot;color: #ce9178;&quot;&gt;SELECT * FROM&lt;/span&gt;&lt;/div&gt;" style="ellipse;shape=doubleEllipse;whiteSpace=wrap;html=1;" vertex="1" parent="324">
                    <mxGeometry x="383" y="320" width="138" height="60" as="geometry"/>
                </mxCell>
                <mxCell id="374" value="&lt;div style=&quot;color: rgb(212, 212, 212); background-color: rgb(30, 30, 30); font-family: &amp;quot;Droid Sans Mono&amp;quot;, &amp;quot;monospace&amp;quot;, monospace; font-size: 14px; line-height: 19px;&quot;&gt;&lt;div style=&quot;line-height: 19px;&quot;&gt;&lt;div style=&quot;line-height: 19px;&quot;&gt;&lt;span style=&quot;color: #ce9178;&quot;&gt;DELETE FROM &lt;/span&gt;&lt;/div&gt;&lt;/div&gt;&lt;/div&gt;" style="ellipse;shape=doubleEllipse;whiteSpace=wrap;html=1;" vertex="1" parent="324">
                    <mxGeometry x="567" y="320" width="156" height="60" as="geometry"/>
                </mxCell>
                <mxCell id="372" style="edgeStyle=none;html=1;exitX=1;exitY=0.5;exitDx=0;exitDy=0;entryX=0;entryY=0.5;entryDx=0;entryDy=0;" edge="1" parent="324" source="373" target="374">
                    <mxGeometry relative="1" as="geometry"/>
                </mxCell>
                <mxCell id="376" value="&lt;div style=&quot;color: rgb(212, 212, 212); background-color: rgb(30, 30, 30); font-family: &amp;quot;Droid Sans Mono&amp;quot;, &amp;quot;monospace&amp;quot;, monospace; font-size: 14px; line-height: 19px;&quot;&gt;&lt;span style=&quot;color: #ce9178;&quot;&gt;SELECT * FROM&lt;/span&gt;&lt;/div&gt;" style="ellipse;shape=doubleEllipse;whiteSpace=wrap;html=1;" vertex="1" parent="324">
                    <mxGeometry x="383" y="411" width="138" height="60" as="geometry"/>
                </mxCell>
                <mxCell id="383" style="edgeStyle=none;html=1;exitX=1;exitY=0.5;exitDx=0;exitDy=0;" edge="1" parent="324" source="380" target="382">
                    <mxGeometry relative="1" as="geometry"/>
                </mxCell>
                <mxCell id="380" value="&lt;div style=&quot;color: rgb(212, 212, 212); background-color: rgb(30, 30, 30); font-family: &amp;quot;Droid Sans Mono&amp;quot;, &amp;quot;monospace&amp;quot;, monospace; font-size: 14px; line-height: 19px;&quot;&gt;&lt;span style=&quot;color: #ce9178;&quot;&gt;SELECT * FROM&lt;/span&gt;&lt;/div&gt;" style="ellipse;shape=doubleEllipse;whiteSpace=wrap;html=1;" vertex="1" parent="324">
                    <mxGeometry x="383" y="498" width="138" height="60" as="geometry"/>
                </mxCell>
                <mxCell id="382" value="&lt;div style=&quot;color: rgb(212, 212, 212); background-color: rgb(30, 30, 30); font-family: &amp;quot;Droid Sans Mono&amp;quot;, &amp;quot;monospace&amp;quot;, monospace; font-size: 14px; line-height: 19px;&quot;&gt;&lt;div style=&quot;line-height: 19px;&quot;&gt;tabulate&lt;/div&gt;&lt;/div&gt;" style="ellipse;shape=doubleEllipse;whiteSpace=wrap;html=1;" vertex="1" parent="324">
                    <mxGeometry x="561" y="498" width="138" height="60" as="geometry"/>
                </mxCell>
            </root>
        </mxGraphModel>
    </diagram>
</mxfile>